<mxfile host="65bd71144e">
    <diagram id="WFghNFfyn0lZCUoYIt5L" name="Encode">
        <mxGraphModel dx="1261" dy="926" grid="1" gridSize="10" guides="1" tooltips="1" connect="1" arrows="1" fold="1" page="1" pageScale="1" pageWidth="1100" pageHeight="850" math="0" shadow="0">
            <root>
                <mxCell id="0"/>
                <mxCell id="1" parent="0"/>
                <mxCell id="B0J8ywt1iq1p1PwwLXu7-17" style="edgeStyle=none;html=1;exitX=0.5;exitY=1;exitDx=0;exitDy=0;entryX=0.5;entryY=0;entryDx=0;entryDy=0;" edge="1" parent="1" source="4" target="5">
                    <mxGeometry relative="1" as="geometry"/>
                </mxCell>
                <mxCell id="B0J8ywt1iq1p1PwwLXu7-21" style="edgeStyle=none;html=1;exitX=1;exitY=0.5;exitDx=0;exitDy=0;entryX=0;entryY=0.5;entryDx=0;entryDy=0;" edge="1" parent="1" source="4" target="6">
                    <mxGeometry relative="1" as="geometry"/>
                </mxCell>
                <mxCell id="4" value="value &amp;gt; 0 ?" style="rhombus;whiteSpace=wrap;html=1;fillColor=#fa6800;fontColor=#000000;strokeColor=#C73500;" vertex="1" parent="1">
                    <mxGeometry x="180" y="260" width="150" height="80" as="geometry"/>
                </mxCell>
                <mxCell id="B0J8ywt1iq1p1PwwLXu7-18" style="edgeStyle=none;html=1;exitX=0.5;exitY=1;exitDx=0;exitDy=0;entryX=0.5;entryY=0;entryDx=0;entryDy=0;" edge="1" parent="1" source="5" target="7">
                    <mxGeometry relative="1" as="geometry"/>
                </mxCell>
                <mxCell id="5" value="Giá trị bit 23 bằng 0" style="rounded=0;whiteSpace=wrap;html=1;fillColor=#0050ef;fontColor=#ffffff;strokeColor=#001DBC;" vertex="1" parent="1">
                    <mxGeometry x="195" y="370" width="120" height="60" as="geometry"/>
                </mxCell>
                <mxCell id="B0J8ywt1iq1p1PwwLXu7-23" style="edgeStyle=none;html=1;exitX=0.5;exitY=1;exitDx=0;exitDy=0;entryX=1;entryY=0.5;entryDx=0;entryDy=0;" edge="1" parent="1" source="6" target="7">
                    <mxGeometry relative="1" as="geometry">
                        <Array as="points">
                            <mxPoint x="470" y="500"/>
                        </Array>
                    </mxGeometry>
                </mxCell>
                <mxCell id="6" value="Giá trị bit 23 bằng 1" style="rounded=0;whiteSpace=wrap;html=1;fillColor=#0050ef;fontColor=#ffffff;strokeColor=#001DBC;" vertex="1" parent="1">
                    <mxGeometry x="410" y="270" width="120" height="60" as="geometry"/>
                </mxCell>
                <mxCell id="B0J8ywt1iq1p1PwwLXu7-19" style="edgeStyle=none;html=1;exitX=0.5;exitY=1;exitDx=0;exitDy=0;entryX=0.5;entryY=0;entryDx=0;entryDy=0;" edge="1" parent="1" source="7" target="9">
                    <mxGeometry relative="1" as="geometry"/>
                </mxCell>
                <mxCell id="7" value="Nhân trị truyệt đối giá trị thu được cho 10000" style="rounded=0;whiteSpace=wrap;html=1;fillColor=#0050ef;fontColor=#ffffff;strokeColor=#001DBC;" vertex="1" parent="1">
                    <mxGeometry x="195" y="470" width="120" height="60" as="geometry"/>
                </mxCell>
                <mxCell id="B0J8ywt1iq1p1PwwLXu7-20" style="edgeStyle=none;html=1;exitX=0.5;exitY=1;exitDx=0;exitDy=0;entryX=0.5;entryY=0;entryDx=0;entryDy=0;" edge="1" parent="1" source="9" target="B0J8ywt1iq1p1PwwLXu7-13">
                    <mxGeometry relative="1" as="geometry"/>
                </mxCell>
                <mxCell id="9" value="Tách giá trị thu được thành 3 byte High, Middle, Low" style="rounded=0;whiteSpace=wrap;html=1;fillColor=#0050ef;fontColor=#ffffff;strokeColor=#001DBC;" vertex="1" parent="1">
                    <mxGeometry x="195" y="560" width="120" height="60" as="geometry"/>
                </mxCell>
                <mxCell id="B0J8ywt1iq1p1PwwLXu7-16" style="edgeStyle=none;html=1;exitX=0.5;exitY=1;exitDx=0;exitDy=0;entryX=0.5;entryY=0;entryDx=0;entryDy=0;" edge="1" parent="1" source="B0J8ywt1iq1p1PwwLXu7-9" target="4">
                    <mxGeometry relative="1" as="geometry"/>
                </mxCell>
                <mxCell id="B0J8ywt1iq1p1PwwLXu7-22" style="edgeStyle=none;html=1;exitX=1;exitY=0.5;exitDx=0;exitDy=0;entryX=0;entryY=0.5;entryDx=0;entryDy=0;" edge="1" parent="1" source="B0J8ywt1iq1p1PwwLXu7-9" target="B0J8ywt1iq1p1PwwLXu7-12">
                    <mxGeometry relative="1" as="geometry"/>
                </mxCell>
                <mxCell id="B0J8ywt1iq1p1PwwLXu7-9" value="value &amp;lt; 100 and value &amp;gt; 99.9999" style="rhombus;whiteSpace=wrap;html=1;fillColor=#fa6800;fontColor=#000000;strokeColor=#C73500;" vertex="1" parent="1">
                    <mxGeometry x="125" y="140" width="260" height="100" as="geometry"/>
                </mxCell>
                <mxCell id="B0J8ywt1iq1p1PwwLXu7-26" style="edgeStyle=none;html=1;exitX=1;exitY=0.5;exitDx=0;exitDy=0;entryX=1;entryY=0.5;entryDx=0;entryDy=0;" edge="1" parent="1" source="B0J8ywt1iq1p1PwwLXu7-12" target="B0J8ywt1iq1p1PwwLXu7-24">
                    <mxGeometry relative="1" as="geometry">
                        <Array as="points">
                            <mxPoint x="580" y="190"/>
                            <mxPoint x="580" y="770"/>
                        </Array>
                    </mxGeometry>
                </mxCell>
                <mxCell id="B0J8ywt1iq1p1PwwLXu7-12" value="Return fail" style="rounded=0;whiteSpace=wrap;html=1;fillColor=#0050ef;fontColor=#ffffff;strokeColor=#001DBC;" vertex="1" parent="1">
                    <mxGeometry x="410" y="160" width="120" height="60" as="geometry"/>
                </mxCell>
                <mxCell id="B0J8ywt1iq1p1PwwLXu7-25" style="edgeStyle=none;html=1;exitX=0.5;exitY=1;exitDx=0;exitDy=0;entryX=0.5;entryY=0;entryDx=0;entryDy=0;" edge="1" parent="1" source="B0J8ywt1iq1p1PwwLXu7-13" target="B0J8ywt1iq1p1PwwLXu7-24">
                    <mxGeometry relative="1" as="geometry"/>
                </mxCell>
                <mxCell id="B0J8ywt1iq1p1PwwLXu7-13" value="Thay đổi giá trị bit 23&amp;nbsp;" style="rounded=0;whiteSpace=wrap;html=1;fillColor=#0050ef;fontColor=#ffffff;strokeColor=#001DBC;" vertex="1" parent="1">
                    <mxGeometry x="195" y="660" width="120" height="60" as="geometry"/>
                </mxCell>
                <mxCell id="B0J8ywt1iq1p1PwwLXu7-14" value="" style="endArrow=classic;html=1;exitX=0.5;exitY=1;exitDx=0;exitDy=0;" edge="1" parent="1" target="B0J8ywt1iq1p1PwwLXu7-9">
                    <mxGeometry width="50" height="50" relative="1" as="geometry">
                        <mxPoint x="255" y="110" as="sourcePoint"/>
                        <mxPoint x="330" y="360" as="targetPoint"/>
                    </mxGeometry>
                </mxCell>
                <mxCell id="B0J8ywt1iq1p1PwwLXu7-24" value="End" style="ellipse;whiteSpace=wrap;html=1;fillColor=#f0a30a;fontColor=#000000;strokeColor=#BD7000;" vertex="1" parent="1">
                    <mxGeometry x="207.5" y="740" width="95" height="60" as="geometry"/>
                </mxCell>
                <mxCell id="B0J8ywt1iq1p1PwwLXu7-27" value="Start" style="rounded=1;whiteSpace=wrap;html=1;fillColor=#60a917;strokeColor=#2D7600;fontColor=#ffffff;" vertex="1" parent="1">
                    <mxGeometry x="195" y="50" width="120" height="60" as="geometry"/>
                </mxCell>
                <mxCell id="6kqtN7jpoJI0HNHLvXJd-19" style="edgeStyle=none;html=1;exitX=0.5;exitY=1;exitDx=0;exitDy=0;entryX=0.5;entryY=0;entryDx=0;entryDy=0;" edge="1" parent="1" target="6kqtN7jpoJI0HNHLvXJd-20">
                    <mxGeometry relative="1" as="geometry">
                        <mxPoint x="850" y="300" as="sourcePoint"/>
                    </mxGeometry>
                </mxCell>
                <mxCell id="6kqtN7jpoJI0HNHLvXJd-20" value="value = value &amp;amp;&amp;nbsp;7F FFFF" style="rounded=0;whiteSpace=wrap;html=1;fillColor=#0050ef;fontColor=#ffffff;strokeColor=#001DBC;" vertex="1" parent="1">
                    <mxGeometry x="760" y="350" width="180" height="60" as="geometry"/>
                </mxCell>
                <mxCell id="6kqtN7jpoJI0HNHLvXJd-21" style="edgeStyle=none;html=1;exitX=1;exitY=0.5;exitDx=0;exitDy=0;entryX=0.995;entryY=0.586;entryDx=0;entryDy=0;entryPerimeter=0;" edge="1" parent="1" target="6kqtN7jpoJI0HNHLvXJd-23">
                    <mxGeometry relative="1" as="geometry">
                        <mxPoint x="910" y="280" as="sourcePoint"/>
                        <mxPoint x="990" y="280" as="targetPoint"/>
                        <Array as="points">
                            <mxPoint x="970" y="280"/>
                            <mxPoint x="970" y="505"/>
                        </Array>
                    </mxGeometry>
                </mxCell>
                <mxCell id="6kqtN7jpoJI0HNHLvXJd-22" style="edgeStyle=none;html=1;exitX=0.5;exitY=1;exitDx=0;exitDy=0;entryX=0.5;entryY=0;entryDx=0;entryDy=0;" edge="1" parent="1" target="6kqtN7jpoJI0HNHLvXJd-23">
                    <mxGeometry relative="1" as="geometry">
                        <mxPoint x="847.5" y="410" as="sourcePoint"/>
                    </mxGeometry>
                </mxCell>
                <mxCell id="6kqtN7jpoJI0HNHLvXJd-23" value="End" style="ellipse;whiteSpace=wrap;html=1;fillColor=#f0a30a;fontColor=#000000;strokeColor=#BD7000;" vertex="1" parent="1">
                    <mxGeometry x="800" y="470" width="95" height="60" as="geometry"/>
                </mxCell>
                <mxCell id="6kqtN7jpoJI0HNHLvXJd-24" value="Start" style="rounded=1;whiteSpace=wrap;html=1;fillColor=#60a917;strokeColor=#2D7600;fontColor=#ffffff;" vertex="1" parent="1">
                    <mxGeometry x="790" y="50" width="120" height="60" as="geometry"/>
                </mxCell>
                <mxCell id="6kqtN7jpoJI0HNHLvXJd-25" value="Ghép 3 bytes High, Middle, Low" style="rounded=0;whiteSpace=wrap;html=1;fillColor=#f0a30a;fontColor=#000000;strokeColor=#BD7000;" vertex="1" parent="1">
                    <mxGeometry x="790" y="140" width="120" height="60" as="geometry"/>
                </mxCell>
                <mxCell id="6kqtN7jpoJI0HNHLvXJd-26" value="" style="endArrow=classic;html=1;exitX=0.5;exitY=1;exitDx=0;exitDy=0;entryX=0.5;entryY=0;entryDx=0;entryDy=0;" edge="1" parent="1" source="6kqtN7jpoJI0HNHLvXJd-24" target="6kqtN7jpoJI0HNHLvXJd-25">
                    <mxGeometry width="50" height="50" relative="1" as="geometry">
                        <mxPoint x="820" y="150" as="sourcePoint"/>
                        <mxPoint x="870" y="100" as="targetPoint"/>
                    </mxGeometry>
                </mxCell>
                <mxCell id="6kqtN7jpoJI0HNHLvXJd-27" value="" style="endArrow=classic;html=1;exitX=0.5;exitY=1;exitDx=0;exitDy=0;entryX=0.5;entryY=0;entryDx=0;entryDy=0;" edge="1" parent="1" source="6kqtN7jpoJI0HNHLvXJd-25">
                    <mxGeometry width="50" height="50" relative="1" as="geometry">
                        <mxPoint x="860" y="120" as="sourcePoint"/>
                        <mxPoint x="850" y="240" as="targetPoint"/>
                    </mxGeometry>
                </mxCell>
                <mxCell id="6kqtN7jpoJI0HNHLvXJd-28" value="&lt;span style=&quot;color: rgb(255, 255, 255);&quot;&gt;value &amp;gt;= 0x800000&lt;/span&gt;" style="rhombus;whiteSpace=wrap;html=1;fillColor=#e51400;fontColor=#ffffff;strokeColor=#B20000;" vertex="1" parent="1">
                    <mxGeometry x="790" y="240" width="120" height="80" as="geometry"/>
                </mxCell>
            </root>
        </mxGraphModel>
    </diagram>
    <diagram id="7WHY02l94Mu_ZioSoFj3" name="Decode ">
        <mxGraphModel dx="1874" dy="1124" grid="1" gridSize="10" guides="1" tooltips="1" connect="1" arrows="1" fold="1" page="1" pageScale="1" pageWidth="1100" pageHeight="850" math="0" shadow="0">
            <root>
                <mxCell id="0"/>
                <mxCell id="1" parent="0"/>
            </root>
        </mxGraphModel>
    </diagram>
</mxfile>